
<svg width="133" height="16" viewBox="0 0 133 16" fill="none" xmlns="http://www.w3.org/2000/svg">
<path d="M4.57611 15.0844C2.92502 15.0844 1.27276 14.4988 0 13.6783L0.854737 11.4918C2.00957 12.3123 3.4026 12.82 4.65668 12.82C6.18867 12.82 6.86475 11.941 6.86475 10.9452C6.86475 9.94934 6.42687 9.32364 4.11838 8.36676C1.57169 7.31132 0.660903 6.02211 0.660903 4.30316C0.660903 2.23354 2.41241 0.300293 5.45654 0.300293C6.86942 0.300293 8.25895 0.768994 9.11836 1.33166L8.32201 3.47921C7.54667 2.95206 6.39184 2.46388 5.40282 2.46388C3.87084 2.46388 3.15389 3.28439 3.15389 4.24128C3.15389 5.19816 3.87084 5.76427 5.6819 6.54582C8.56722 7.77659 9.40327 8.92828 9.40327 10.8031C9.39277 13.1111 7.5817 15.0844 4.57611 15.0844Z" fill="white"/>
<path d="M23.9196 14.8495L23.72 6.27647L19.1228 13.111H18.8251L14.1883 6.25699L14.0283 14.8517H11.5762L12.1927 0.360984L12.571 0.322021L19.0388 9.81293L25.3442 0.322021L25.7412 0.360984L26.3589 14.8517L23.9196 14.8495Z" fill="white"/>
<path d="M38.8635 14.8495L37.4507 11.5686H31.68L30.2671 14.8495H27.6982L34.424 0.339233H34.7825L41.4908 14.8495H38.8635ZM34.5653 4.84518L32.4962 9.63532H36.6356L34.5653 4.84518Z" fill="white"/>
<path d="M50.9432 14.8494L47.7589 9.69258C47.5009 9.71206 47.2615 9.71206 46.9836 9.71206C46.506 9.71206 46.0086 9.69258 45.531 9.6731V14.8494H43.0474V0.670378C44.3219 0.516189 45.6049 0.439645 46.889 0.441185C51.0272 0.441185 52.8582 2.41339 52.8582 4.95286C52.8582 6.80818 51.8236 8.31169 50.0125 9.09324L53.8332 14.854L50.9432 14.8494ZM47.2066 2.62425C46.6472 2.61037 46.0877 2.64874 45.5357 2.73885V7.62067C46.011 7.67725 46.4896 7.70366 46.9684 7.69974C49.1368 7.69974 50.2321 6.7039 50.2321 5.06402C50.2274 3.6201 49.1123 2.62425 47.2019 2.62425H47.2066Z" fill="white"/>
<path d="M61.3505 2.76067V14.8495H58.8634V2.76067H54.2266V0.534058H65.9675V2.76067H61.3505Z" fill="white"/>
<path d="M73.4784 9.56429C72.8797 9.55651 72.2819 9.51826 71.6872 9.4497V14.547H70.5732V0.326652C71.5695 0.199696 72.573 0.134627 73.5777 0.131836C77.3387 0.131836 79.1895 2.24042 79.1895 4.68247C79.1895 7.55312 77.0608 9.56429 73.4784 9.56429ZM73.6968 1.1082C73.0246 1.11143 72.3534 1.15698 71.6872 1.24457V8.47104C72.2965 8.54869 72.9097 8.59422 73.524 8.60741C76.4431 8.60741 78.002 6.98701 78.002 4.74092C77.9961 2.82715 76.5237 1.1082 73.6968 1.1082Z" fill="white"/>
<path d="M88.2236 14.7395C84.2243 14.7395 81.04 11.6351 81.04 7.39612C81.04 3.15718 84.2838 0.0137939 88.3041 0.0137939C92.3034 0.0137939 95.4877 3.15833 95.4877 7.39612C95.4877 11.6339 92.2439 14.7395 88.2236 14.7395ZM88.2633 1.01079C84.7602 1.01079 82.2544 3.78403 82.2544 7.39612C82.2544 10.9899 84.7614 13.7631 88.2633 13.7631C91.7651 13.7631 94.2733 10.9899 94.2733 7.39612C94.2733 3.78403 91.7663 1.01079 88.2633 1.01079Z" fill="white"/>
<path d="M106.532 14.5446L102.552 8.72423C102.13 8.78113 101.704 8.80718 101.278 8.80216C100.761 8.80216 99.9844 8.7632 99.5069 8.72423V14.5446H98.373V0.365546C99.4081 0.21918 100.452 0.142603 101.498 0.136353C105.099 0.136353 107.029 1.87364 107.029 4.37643C107.029 6.32458 105.816 7.87278 103.643 8.50192L107.881 14.5561L106.532 14.5446ZM101.617 1.10813C100.91 1.10679 100.204 1.16546 99.5069 1.28347V7.74787C100.115 7.81837 100.726 7.85662 101.338 7.86247C104.264 7.86247 105.836 6.51481 105.836 4.42456C105.836 2.51424 104.383 1.10813 101.617 1.10813Z" fill="white"/>
<path d="M115.069 1.20561V14.5447H113.934V1.20561H108.98V0.229248H120.004V1.20561H115.069Z" fill="white"/>
<mask id="mask0_1221_84" style="mask-type:luminance" maskUnits="userSpaceOnUse" x="126" y="10" width="5" height="5">
<path d="M130.78 10.3275H126.502V14.4748H130.78V10.3275Z" fill="white"/>
</mask>
<g mask="url(#mask0_1221_84)">
<mask id="mask1_1221_84" style="mask-type:luminance" maskUnits="userSpaceOnUse" x="-13" y="-27" width="156" height="65">
<path d="M142.844 -26.9576H-12.314V37.7357H142.844V-26.9576Z" fill="white"/>
</mask>
<g mask="url(#mask1_1221_84)">
<path d="M132.335 8.80115H124.948V16.0001H132.335V8.80115Z" fill="white"/>
</g>
</g>
<mask id="mask2_1221_84" style="mask-type:luminance" maskUnits="userSpaceOnUse" x="121" y="10" width="5" height="5">
<path d="M125.732 10.3275H121.455V14.4748H125.732V10.3275Z" fill="white"/>
</mask>
<g mask="url(#mask2_1221_84)">
<mask id="mask3_1221_84" style="mask-type:luminance" maskUnits="userSpaceOnUse" x="-13" y="-27" width="156" height="65">
<path d="M142.844 -26.9576H-12.314V37.7357H142.844V-26.9576Z" fill="white"/>
</mask>
<g mask="url(#mask3_1221_84)">
<path opacity="0.7" d="M127.287 8.80115H119.9V16.0001H127.287V8.80115Z" fill="white"/>
</g>
</g>
<mask id="mask4_1221_84" style="mask-type:luminance" maskUnits="userSpaceOnUse" x="121" y="5" width="5" height="5">
<path d="M125.732 5.43762H121.455V9.58488H125.732V5.43762Z" fill="white"/>
</mask>
<g mask="url(#mask4_1221_84)">
<mask id="mask5_1221_84" style="mask-type:luminance" maskUnits="userSpaceOnUse" x="-13" y="-27" width="156" height="65">
<path d="M142.844 -26.9578H-12.314V37.7355H142.844V-26.9578Z" fill="white"/>
</mask>
<g mask="url(#mask5_1221_84)">
<path opacity="0.5" d="M127.287 3.91113H119.9V11.1101H127.287V3.91113Z" fill="white"/>
</g>
</g>
<mask id="mask6_1221_84" style="mask-type:luminance" maskUnits="userSpaceOnUse" x="126" y="1" width="5" height="5">
<path d="M130.78 1.52637H126.502V5.67362H130.78V1.52637Z" fill="white"/>
</mask>
<g mask="url(#mask6_1221_84)">
<mask id="mask7_1221_84" style="mask-type:luminance" maskUnits="userSpaceOnUse" x="-13" y="-27" width="156" height="65">
<path d="M142.844 -26.9578H-12.314V37.7355H142.844V-26.9578Z" fill="white"/>
</mask>
<g mask="url(#mask7_1221_84)">
<path opacity="0.3" d="M132.335 0H124.948V7.19897H132.335V0Z" fill="white"/>
</g>
</g>
</svg>
